<svg xmlns="http://www.w3.org/2000/svg" viewBox="0 0 528 528">
  <title>bencodezen-logo</title>
  <g>
    <path d="M396,324a47.5,47.5,0,0,1,24.5,6.9A47.8,47.8,0,0,1,468,288a53.5,53.5,0,0,1,7,.7,48.1,48.1,0,0,1-7-24.7,46.8,46.8,0,0,1,6.7-24H384a72,72,0,0,1-144,0H113.3a46.8,46.8,0,0,1,6.7,24,48.1,48.1,0,0,1-7,24.7,53.5,53.5,0,0,1,7-.7,47.8,47.8,0,0,1,47.5,42.9A47.3,47.3,0,0,1,233.3,348H354.7A47.7,47.7,0,0,1,396,324Z" fill="#333"/>
    <polygon points="264 144 240 0 324 84 264 144" fill="#333"/>
    <polygon points="348 144 324 0 408 84 348 144" fill="#333"/>
    <path d="M492,144a58.3,58.3,0,0,1-52.1-32.2L420,72H252l27.8,55.7A177.4,177.4,0,0,0,228,120c-2.4,0-4.8.3-7.2.4A119.9,119.9,0,1,1,52.5,260.3,185.1,185.1,0,0,0,48,300,179.2,179.2,0,0,0,96,422.1V528h36l30.3-60.6A179.3,179.3,0,0,0,203,478.1L228,528h36V476.4a173,173,0,0,0,29.7-9L324,528h36V422.1A179.3,179.3,0,0,0,387.1,216H456Z" fill="#2af"/>
    <circle cx="396" cy="168" r="12" fill="#333"/>
    <circle cx="444" cy="168" r="12" fill="#333"/>
    <path d="M420,132H408v-6a6,6,0,0,0-12,0v6H384v-6a18,18,0,0,1,36,0Z" fill="#333"/>
    <path d="M348,132H336v-6a6,6,0,0,0-12,0v6H312v-6a18,18,0,0,1,36,0Z" fill="#333"/>
    <path d="M408,300a178.7,178.7,0,0,0-20.9-84H331.7A166.8,166.8,0,0,1,348,288c0,71.6-44.9,132.6-108,156.8V528h24V476a187.7,187.7,0,0,0,29.7-8.7L324,528h12V443.7A179.1,179.1,0,0,0,408,300Z" fill="#7cf"/>
    <path d="M132,452.1V528l30.3-60.6A172.1,172.1,0,0,1,132,452.1Z" fill="#7cf"/>
    <circle cx="324" cy="180" r="24" fill="#7cf"/>
  </g>
</svg>
