<svg xmlns="http://www.w3.org/2000/svg" viewBox="0 0 384 384">
  <title>gam-logo</title>
  <g>
    <path d="M280,336h-2.6l-3.3-10A102.4,102.4,0,0,0,264,304v32H112v16H264v32a102.4,102.4,0,0,0,10.1-22l3.3-10H280a4,4,0,0,0,4-4v-8A4,4,0,0,0,280,336Z" fill="#06d"/>
    <polygon points="264.4 296 238.4 216 145.6 216 119.6 296 264.4 296" fill="#06d"/>
    <path d="M229.5,0H232V16h-2.5a4,4,0,0,1-3.8-2.8L224,8l1.7-5.2A4,4,0,0,1,229.5,0Zm-9.4,20.1-2.5-7.8a17.9,17.9,0,0,0-4.4-7.1h0A17.9,17.9,0,0,0,200.6,0h-9.1a17.9,17.9,0,0,0-12.7,5.3h0a17.9,17.9,0,0,0-4.4,7.1l-2.5,7.8L168,24v8h64V24Z" fill="#06d"/>
    <path d="M151.2,104a32,32,0,0,1-30.4-22.1L107.2,40H64A32,32,0,0,0,32,72V328a9.9,9.9,0,0,0,9.4-6.9L56,276.3V328a9.9,9.9,0,0,0,9.4-6.9L80,276.3V328a9.9,9.9,0,0,0,9.4-6.9L160,104Zm-80-24L76,65.5,80.7,80H96L83.6,89l4.7,14.5L76,94.5l-12.4,9L68.4,89,56,80ZM83.6,233l4.7,14.5-12.4-9-12.4,9L68.4,233,56,224H71.3L76,209.5,80.7,224H96Zm0-72,4.7,14.5-12.4-9-12.4,9L68.4,161,56,152H71.3L76,137.5,80.7,152H96Z" fill="#06d"/>
    <path d="M260.4,216H304v32H270.8Zm-7.8-24H304V160H242.2ZM224,104l-7.8-24h12a16,16,0,0,1,7.2,1.7L240,84V68a12,12,0,0,0-12-12h-6.8l-1.6-4.9A16,16,0,0,0,204.4,40h-9a20,20,0,0,0-19,13.8L144,153.2V328h-2.2a8,8,0,0,0-7.6,5.5L130.8,344l3.4,10.5a8,8,0,0,0,7.6,5.5h21l5.2-16-5-15.4,18.6-57.1a10.9,10.9,0,0,1,20.7,0L221,328.7,216,344l5.2,16h21a8,8,0,0,0,7.6-5.5l3.4-10.5-3.4-10.5a8,8,0,0,0-7.6-5.5H240V153.2L234.4,136H304V104Zm96-64H276.8l-13,40H316a12,12,0,0,1,12,12V276.3l14.6,44.8A9.9,9.9,0,0,0,352,328V72A32,32,0,0,0,320,40ZM294.6,321.1A9.9,9.9,0,0,0,304,328V272H278.6Z" fill="#e21"/>
  </g>
</svg>
