<svg xmlns="http://www.w3.org/2000/svg" viewBox="0 0 392 392">
  <title>indie-hackers-body</title>
  <g>
    <path d="M380.1,50.5a69,69,0,0,0-37.7-37.7,35.5,35.5,0,0,0-27.5,0,36.1,36.1,0,0,0-19.4,19.4L283.7,60.8A176,176,0,0,0,108.6,37.4C18.8,74.6-23.8,177.5,13.4,267.4s140.1,132.4,230,95.2C319,331.3,361.2,253.2,350.3,175.7l29.8-71.9A69.4,69.4,0,0,0,380.1,50.5Z" fill="#eef7ff"/>
    <path d="M286.3,292.9c-22.6,9.3-45.3-13.3-35.9-35.9l5.2-12.7a79.7,79.7,0,0,1,43.3-43.2l36.5-15.2c-.3-4-.9-8.1-1.6-12.2l31.5-76a53.5,53.5,0,0,0-29-70.1,19.9,19.9,0,0,0-26,10.8l-14,33.8-21.7-8.9a24.9,24.9,0,0,0-17-.9l-6.2-14.9-13,5.4a24.3,24.3,0,0,0-13,13l-4.8,11.7-22.2,9.2L191.7,84a37.7,37.7,0,0,0-28.4,0l-15.4,6.4,8.5,20.4a24,24,0,0,0,13,13l9.5,3.9a81.8,81.8,0,0,1-4.7,47.1l29.6-12.3,9.2,22.2-14.8,6.1a116.5,116.5,0,0,0-63,63c-6,14.4,8.5,28.9,22.9,22.9l42.4-17.6-8.9,21.6a52.8,52.8,0,0,1-18.8,23.2,103.9,103.9,0,0,1-29.8-5.3c-1.1-.3-27.7-21.5-35.1-52.3-2.9-12.4-1.8-27.2,2.2-38.8H110a47,47,0,0,0,2.1-11.3,48,48,0,0,0-95.8-5.9h0a160,160,0,0,0,297.4,91.3Z" fill="#4799eb"/>
    <path d="M53.6,180a44.1,44.1,0,0,0-34.4,51.9h0a161.6,161.6,0,0,0,13.6,39.4,40,40,0,1,1,71.6-35.7,37.7,37.7,0,0,1,3.5,10.6h0a70.4,70.4,0,0,1-1.4-20.6A45.1,45.1,0,0,0,53.6,180Z" fill="#1f364d"/>
    <path d="M56.2,306a155.9,155.9,0,0,0,30.7,26.8A31.9,31.9,0,0,1,123,280.1a28.9,28.9,0,0,1,6.2,5.3A104.7,104.7,0,0,1,115.6,266a37.4,37.4,0,0,0-5.5-7.7A36,36,0,1,0,56.2,306Z" fill="#1f364d"/>
    <path d="M125.4,351.7l7.8-18.8a35.4,35.4,0,0,1,19.2-19.2l10.5-4.4a48.6,48.6,0,0,0,9.8-5.3,107,107,0,0,1-29.7-5.4,28,28,0,0,0-17.8,53.1C125.5,351.8,125.6,351.8,125.4,351.7Z" fill="#1f364d"/>
    <path d="M277.2,88.8l-12.8-5.3a48.9,48.9,0,0,0-37.2,0h0a48.3,48.3,0,0,0-26,26l-27,65.3h0a58.2,58.2,0,0,0,31.4-31.4l15-36.2a38.3,38.3,0,0,1,20.9-20.9h0a38.7,38.7,0,0,1,29.5,0Z" fill="#eef7ff"/>
    <path d="M241.5,86.3h0a38.3,38.3,0,0,0-20.9,20.9l-15.1,36.3a57.5,57.5,0,0,1-31.2,31.2h-.1l23.4,9.7a48.8,48.8,0,0,0,36.8,0h.2a48,48,0,0,0,26-26l5.4-13,21.6-52.2L271,86.3A38.7,38.7,0,0,0,241.5,86.3Z" fill="#1f364d"/>
    <path d="M326.7,72.8a21.9,21.9,0,0,0-13.6,1.1l-6.4,2.7-31.3-13a6.6,6.6,0,0,0,0,12.2l16.5,6.9L266,145.4l27,11.2a38.6,38.6,0,0,0,30-.2,18.9,18.9,0,0,0,10-10.2l5.6-13.6a11.3,11.3,0,0,0-6.1-14.7L340,99.8A20.1,20.1,0,0,0,326.7,72.8Zm-.6,30.9L317.7,124l5.6,2.3a6.9,6.9,0,0,1,0,12.7l-6.8,2.8a39.2,39.2,0,0,1-29.7,0l-11.3-4.7a38.3,38.3,0,0,0,20.9-20.9l1.1-2.5a23,23,0,0,1,12.4-12.5l9.7-4A5,5,0,0,1,326.1,103.7Z" fill="#eef7ff"/>
    <path d="M285.8,67.9h0l20.9,8.7,7.4-3.1,5.9,2.4a4.5,4.5,0,0,1,0,8.2l-1.3.5-1.1.5a26.4,26.4,0,0,1-19.9,0l-11.9-4.9A6.7,6.7,0,0,1,285.8,67.9Z" fill="#1f364d"/>
    <path d="M253.2,122.3a32.1,32.1,0,0,1,13.8-16h.1a12.1,12.1,0,0,0-17.8-5.7,12,12,0,0,0,3.9,21.7Z" fill="#eef7ff"/>
  </g>
</svg>
