<svg xmlns="http://www.w3.org/2000/svg" xmlns:xlink="http://www.w3.org/1999/xlink" viewBox="0 0 552 552">
  <defs>
    <linearGradient id="a" x1="-854.76" y1="2440.43" x2="-464.44" y2="2050.1" gradientTransform="translate(935.6 -1969.3)" gradientUnits="userSpaceOnUse">
      <stop offset="0" stop-color="#63e"/>
      <stop offset="1" stop-color="#1b162a"/>
    </linearGradient>
  </defs>
  <title>launch-it-shuttle-logo-red-gradient</title>
  <g>
    <circle cx="276" cy="276" r="276" fill="url(#a)"/>
    <path d="M240.2,267,28.1,397.3A274.8,274.8,0,0,0,154.7,523.9L285,311.7a8.8,8.8,0,0,0-1.3-11l-32.4-32.4A8.9,8.9,0,0,0,240.2,267Z" fill="#e33"/>
    <path d="M275.1,119l62.8-5.7a85,85,0,0,0,35.6-11.6L484.8,34.9a23.5,23.5,0,0,1,32.3,32.3L450.3,178.5a85,85,0,0,0-11.6,35.6L433,276.9a36.3,36.3,0,0,1-10.4,22.2l-17.5,17.5L330.9,272l-12.5,12.5-20.1-20.2-20.2,13.8-4.2-4.2,13.8-20.2-20.2-20.1L280,221.1l-44.6-74.2,17.5-17.5A36.3,36.3,0,0,1,275.1,119Z" fill="#e33"/>
    <path d="M148.1,246.8c-19.7-27-19.7-33.4,0-60.4a2.3,2.3,0,0,0-3.2-3.1c-26.9,19.7-33.3,19.7-60.3,0a2.2,2.2,0,0,0-3.1,3.1c19.6,27,19.6,33.4,0,60.4a2.2,2.2,0,0,0,3.1,3.1c27-19.7,33.4-19.7,60.3,0A2.3,2.3,0,0,0,148.1,246.8Z" fill="#fff"/>
    <path d="M229.5,100.3c-12.8-17.5-12.8-21.4,0-38.9a1.4,1.4,0,0,0-1.9-1.9c-17.5,12.8-21.4,12.8-38.9,0a1.4,1.4,0,0,0-1.9,1.9c12.8,17.5,12.8,21.4,0,38.9a1.4,1.4,0,0,0,1.9,1.9c17.5-12.8,21.4-12.8,38.9,0A1.4,1.4,0,0,0,229.5,100.3Z" fill="#fff"/>
    <path d="M390.7,431.2c-12.8-17.5-12.8-21.4,0-38.9a1.4,1.4,0,0,0-1.9-1.9c-17.5,12.8-21.4,12.8-38.9,0a1.4,1.4,0,0,0-1.9,1.9c12.8,17.5,12.8,21.4,0,38.9a1.4,1.4,0,0,0,1.9,1.9c17.5-12.8,21.4-12.8,38.9,0A1.4,1.4,0,0,0,390.7,431.2Z" fill="#fff"/>
    <path d="M195.4,356.6l35.9-51.9a1.5,1.5,0,0,0-1.6-2.3l-30.1,7.5,34.9-27.1a4.7,4.7,0,0,1,6.3.4l28,28a4.7,4.7,0,0,1,.4,6.3l-27.1,34.9,7.5-30.1a1.5,1.5,0,0,0-2.3-1.6Z" fill="#fff"/>
    <path d="M471.1,70.6l6.4,3.9,19.1-19.1-8.5-8.5L379.7,112A97.8,97.8,0,0,1,339,125.3L276.2,131a23.6,23.6,0,0,0-14.8,6.9l-6.6,6.6,50.9,50.9-8.5,8.5-8.5,8.5,17.8,17.7L341.8,206l2.1,2.1L469.6,82.4l-13.3-7.9,6.4-3.9A8.4,8.4,0,0,1,471.1,70.6Z" fill="#fff"/>
  </g>
</svg>
