<svg xmlns="http://www.w3.org/2000/svg" viewBox="0 0 1000 456">
  <title>Artboard 1</title>
  <path d="M222.2,171.5h56.9L251.7,282H224.1l3.4-13.8H196.2l20.7-27.6h17.4l10.3-41.4H232.4L170.5,282H72.2L99.6,171.5h27.6l-20.6,82.9h53.6Zm233.9,65.8-16.6-65.8H403.3L375.9,282h27.6l16.4-65.8L436.4,282h36.2L500,171.5H472.4ZM683,213H641.6l10.3-41.5H624.2l-20.5,82.9H543.2c-8.5,0-15-4.7-16.9-12.4a20,20,0,0,1,.1-10l2.6-10.5a29.7,29.7,0,0,1,4.8-10c5.8-7.6,14.6-12.3,23.1-12.3h46.7l6.8-27.7H563.7c-19,0-38.7,10.6-51.5,27.7a64,64,0,0,0-10.8,22.3L498.8,232a47.3,47.3,0,0,0-.3,22.4c4.3,17,18.8,27.6,37.8,27.6h88.2l10.2-41.4h41.5L665.9,282h27.6l27.4-110.5H693.3Zm245-41.5H831.4l-6.9,27.7H859L838.5,282h27.6l20.5-82.8h34.5ZM762.5,282h27.6l27.4-110.5H789.9ZM361.9,171.5l-16.3,65.6c-2.8,11.5-14.4,20.7-25.8,20.7s-18.4-9.2-15.6-20.7l16.3-65.6H292.9l-16.3,65.6c-6.6,26.7,9.7,48.4,36.3,48.4s53.7-21.7,60.4-48.4l16.2-65.6Z" fill="#326"/>
</svg>
