<svg xmlns="http://www.w3.org/2000/svg" viewBox="0 0 1000 1000">
  <path fill="#66CC66" d="M797 578c46-118 88-237 125-358C765 134 599 70 425 28
    c-40 84-77 168-112 254c-36-35-72-70-109-103c-49 35-91 76-126 126
    c52 58 106 114 162 167c-20 56-39 113-57 170c-37 46-70 94-99 146
    c56 49 116 92 181 128c36-42 69-85 98-131c36 15 72 29 109 42c-1 47 0 95 5 142
    c74 7 148 7 222 0c6-56 7-112 4-168c5-12 11-24 16-36c25 24 50 48 76 71
    c49-35 91-76 126-126C882 663 840 620 797 578z" />
  <path fill="#2E2E2E" d="M469 436c-3 6-10 9-17 6l-68-26c-6-3-10-10-8-16c2-6 4-11 8-16
    c12-16 32-23 51-19c31 7 47 39 36 67C470 433 469 435 469 436z M673 457
    c-19-4-39 3-51 19c-4 5-6 11-8 16c-2 7 2 14 8 16l68 26c6 3 14-0 17-6
    c1-1 1-3 2-4C720 496 703 464 673 457z M563 631c23-12 41-33 50-58l0 0
    c3-8-1-17-9-20l-170-66c-8-3-17 1-20 9l-1 2c-21 55 6 117 61 138c13 5 26 7 39 7
    C530 644 547 640 563 631z M448 531l117 45c3 1 4 5 2 7c-10 12-25 21-42 24
    c-6 1-13 2-20 1c-40-5-65-38-64-73C442 532 445 530 448 531z" />
  <path fill="#2E2E2E" d="M941 691c-34-38-69-75-106-112c-5-5-7-12-4-19C873 451 912 339 946 227l0 0
    c4-12-2-24-12-30l-0-0C776 111 606 45 431 3h0c-12-3-24 3-29 14l0 0
    c-34 72-67 146-98 220c-27-27-55-52-83-77h0c-9-8-22-9-32-2c-51 36-96 81-132 132
    l-0 0c-7 10-6 23 2 32C105 372 154 422 203 470c5 5 7 12 4 18c-16 46-31 92-46 138
    c-1 2-2 4-3 5c-36 45-68 93-96 143v0c-6 11-4 24 5 32l0 0c57 50 119 94 185 131l0 0
    c11 6 24 4 32-5v0c29-33 56-68 81-105c5-7 14-10 21-7c16 6 32 13 48 18
    c7 3 11 9 11 16c0 38 2 76 6 114v0c1 12 11 22 23 23c38 4 76 6 114 6
    c38 0 76-2 114-6c12-1 22-11 23-23l0 0c5-54 7-108 5-162c17 16 33 31 49 45l0 0
    c9 8 22 9 32 2l0 0c51-36 96-81 132-132l0-0C949 713 949 700 941 691L941 691z
     M882 719c-22 28-47 53-75 75c-5 4-12 4-17-1c-13-12-27-25-40-37l24-58
    c3-7-1-15-7-17l-23-9c-7-3-15 1-17 7l-37 91c-3 6-6 13-8 19l-3 6l0 6
    c2 44 2 88-1 132c-1 7-6 12-12 12c-51 4-101 4-152 0c-7-1-12-6-12-12
    c-2-24-2-47-3-71l46 16c7 2 15-1 17-8l8-23c2-7-1-15-8-17l-79-28l0 0
    c-35-12-71-26-107-41l-6-3c-8-3-17-0-22 7l-4 6c-23 36-48 71-75 104
    c-4 5-12 6-17 3c-43-26-85-56-124-88c-5-4-6-12-3-17c24-40 51-78 80-114l1-1
    c1-2 2-4 3-6l0-1c18-57 37-114 57-169l2-5c2-7 1-14-5-19l-4-4
    c-48-45-95-93-140-142c-4-5-5-12-1-17c22-28 47-53 75-75c5-4 12-4 17 1
    c29 26 57 53 85 81l18 18c5 5 12 3 15-3l9-23c30-74 62-148 96-220
    c4-8 12-12 21-10c147 38 290 94 425 165c8 4 11 13 9 21C853 355 815 463 773 569
    l-2 5c-3 7-1 14 4 19l4 4c35 34 69 70 102 106C886 706 886 714 882 719z" />
</svg>
