<svg xmlns="http://www.w3.org/2000/svg" viewBox="0 0 240 240">
  <title>smallhaus-logo-midnight-blue-on-red</title>
  <g>
    <path d="M180.5,128.7l-12,54a3,3,0,0,1-2.9,2.3H74.4a3,3,0,0,1-2.9-2.3L61.4,137.3a3,3,0,0,0-2.9-2.3H33.9a3,3,0,0,0-2.9,3.7l16.4,74a3,3,0,0,0,2.9,2.3H189.6a3,3,0,0,0,2.9-2.3l19-85.3a3,3,0,0,1,2.9-2.3h17.5a3,3,0,0,0,2-5.3l-27.4-24a3,3,0,0,0-2-.7H79.9L118,61.7a3,3,0,0,1,4,0l25.8,22.6a3,3,0,0,0,2,.7h36.4a3,3,0,0,0,2-5.3L122,21.8a3,3,0,0,0-4,0L6.1,119.7a3,3,0,0,0,2,5.3H177.6A3,3,0,0,1,180.5,128.7Z" fill="#e85c41"/>
    <path d="M98.8,34.6l5,60.4H73.7l-5-59.6a5,5,0,0,1,5-5.4H93.8A5,5,0,0,1,98.8,34.6ZM86.5,215h24.1a3,3,0,0,0,3-3.2l-3.6-43.5a3,3,0,0,1,3-3.2h14.2a3,3,0,0,1,3,3.2l-3.6,43.5a3,3,0,0,0,3,3.2h24.1a3,3,0,0,0,3-2.8l6.2-74a3,3,0,0,0-3-3.2H107.1l-.8-10H76.2l.8,10,6.4,77.2A3,3,0,0,0,86.5,215Z" fill="#34495e"/>
  </g>
</svg>
